<svg id="cloudstate-logo" xmlns="http://www.w3.org/2000/svg" viewBox="0 0 1006 220"><g id="cloudstate"><path d="M330.6,85.37,318.31,98.15A28.14,28.14,0,0,0,297.07,89a25,25,0,0,0-18.43,7.48,26.06,26.06,0,0,0-7.3,18.75A26,26,0,0,0,278.65,134a25,25,0,0,0,18.42,7.47,28.16,28.16,0,0,0,21.25-9.13l12.28,12.78c-9,9.63-20.08,14.44-33.53,14.44-12.78,0-23.57-4.14-32.37-12.61s-13.11-19.09-13.12-31.7,4.32-23.08,13.12-31.55,19.58-12.78,32.36-12.78C310.51,70.93,321.63,75.74,330.6,85.37Z" fill="#fff"/><path d="M334.91,51.54h19.92v78.31c0,8.14,2.66,11.62,10,11.62a21.18,21.18,0,0,0,6-.66v17.76a35.9,35.9,0,0,1-9.46,1c-17.6,0-26.4-9-26.4-27.06Z" fill="#fff"/><path d="M369.45,115.41a42.22,42.22,0,0,1,13.27-31.54c8.8-8.47,19.59-12.79,32.37-12.79s23.57,4.32,32.37,12.78a42.25,42.25,0,0,1,13.29,31.54,42.24,42.24,0,0,1-13.28,31.54c-8.8,8.47-19.59,12.79-32.37,12.79s-23.57-4.32-32.37-12.78A42.24,42.24,0,0,1,369.45,115.41Zm64.07,18.75A25.8,25.8,0,0,0,441,115.4a25.14,25.14,0,0,0-7.47-18.59,26.27,26.27,0,0,0-37,0,25.7,25.7,0,0,0-7.3,18.6,26.29,26.29,0,0,0,7.31,18.75,26.66,26.66,0,0,0,37,0Z" fill="#fff"/><path d="M466.22,73.57h19.92v49c0,11.46,6.14,18.6,16.93,18.59,10.63,0,18.26-8,18.26-19.42V73.56h19.92v58.26c0,7.14,1.66,9.63,6.14,9.63a40,40,0,0,0,4.15-.33v16.27a28.82,28.82,0,0,1-9.8,1.33c-5.14,0-9.13-1.16-12.28-3.32a15.61,15.61,0,0,1-6-8.8c-4.81,8.13-13.28,12.29-25.4,12.29-19.92,0-31.87-12.78-31.87-33.53Z" fill="#fff"/><path d="M619.61,85.67V41.51h19.92V132c0,7.14,1.66,9.79,6.15,9.79a40.4,40.4,0,0,0,4.15-.33v16.1a28.82,28.82,0,0,1-9.8,1.33c-4.81,0-8.63-.83-11.62-2.65a15.39,15.39,0,0,1-6.8-10.13c-5.81,8.8-15.44,13.12-28.72,13.12A39.77,39.77,0,0,1,563,146.6c-8-8.47-12-18.76-12-31.21s4-22.74,12-31a39.74,39.74,0,0,1,29.88-12.62C606.33,71.73,616.45,77.7,619.61,85.67Zm-6,48a24.39,24.39,0,0,0,7.47-18.26,24.47,24.47,0,0,0-7.48-18.26,24.78,24.78,0,0,0-18.09-7.3,24,24,0,0,0-17.76,7.31c-4.65,4.81-7,11-7,18.26s2.32,13.44,7,18.26a24.07,24.07,0,0,0,17.76,7.3A24.79,24.79,0,0,0,613.64,133.64Z" fill="#fff"/><path d="M666.76,131.64c3.82,6,12,10.46,22.08,10.46,10.46,0,14.94-4,14.94-9.13,0-2.82-2-5.15-4.82-6.64a42.38,42.38,0,0,0-7.8-3.15c-2.49-.83-7.47-2.33-10.29-3.49-13.45-4.81-20.59-11.62-20.59-23.57,0-7.8,2.82-13.78,8.47-18.26s12.78-6.81,21.08-6.81c11.78,0,20.75,4.15,27.06,12.28L705.76,95.12c-3.65-4.65-9.13-7-16.26-7-6.15,0-10.13,3-10.13,7.47,0,2.82,1.49,4.32,3.82,5.81a55,55,0,0,0,6.81,3c2.49.66,7.13,2.32,10.45,3.48,15.44,5.48,22.42,12.95,22.42,24.9,0,15.44-11.62,26.56-34.36,26.56-16.77,0-29.22-6.47-34.53-16.92Z" fill="#fff"/><path d="M732.33,91.63H721.87V73.54h10.45v-32h19.92v32h18.43v18.1H752.25V129c0,9.13,3.16,12.45,10.46,12.45a31,31,0,0,0,7-.67v17.77a46.17,46.17,0,0,1-10.29,1c-18.09,0-27.06-9.46-27.06-28.38Z" fill="#fff"/><path d="M839.23,85.64V73.53h19.92V132c0,7.13,1.66,9.79,6.14,9.79,1.16,0,2.66-.17,4.15-.33v16.1a28.8,28.8,0,0,1-9.79,1.33c-4.82,0-8.64-.83-11.62-2.66a15.37,15.37,0,0,1-6.81-10.12c-5.81,8.8-15.44,13.11-28.72,13.11a39.72,39.72,0,0,1-29.88-12.61c-8-8.46-12-18.75-12-31.2s4-22.75,11.94-31.05A39.77,39.77,0,0,1,812.5,71.7C826,71.7,836.08,77.68,839.23,85.64Zm-6,48a24.42,24.42,0,0,0,7.47-18.26,24.39,24.39,0,0,0-7.47-18.26,24.78,24.78,0,0,0-18.1-7.3,24,24,0,0,0-17.76,7.3c-4.65,4.82-7,11-7,18.26s2.33,13.45,7,18.26a24,24,0,0,0,17.77,7.3A24.8,24.8,0,0,0,833.26,133.62Z" fill="#fff"/><path d="M876.42,91.62H866V73.52h10.45v-32h19.92v32h18.43V91.61H896.34V129c0,9.13,3.16,12.45,10.46,12.45a31,31,0,0,0,7-.66v17.76a46.12,46.12,0,0,1-10.29,1c-18.09,0-27.06-9.46-27.06-28.39Z" fill="#fff"/><path d="M915.1,115.35c0-13.28,4.15-23.91,12.28-32,8.3-8.14,18.76-12.12,31.54-12.12,12.12,0,22.08,4,29.71,12.11,7.81,8.14,11.62,18.1,11.63,30.05,0,2.49-.17,4.81-.34,7H934.85c.67,13.28,10.46,21.91,25.24,21.91,8.63,0,16.1-3.16,22.57-9.63l12,11.61c-9.47,10-21.08,14.95-35.19,14.95-13.12,0-23.91-4-32-11.78S915.1,129.13,915.1,116Zm64.9-9c0-5-2.16-9.3-6.31-12.78a21.43,21.43,0,0,0-14.77-5.48,25.75,25.75,0,0,0-16.1,5.31,18.23,18.23,0,0,0-7.47,12.95Z" fill="#fff"/></g><path d="M254.87,5.25a2.15,2.15,0,1,1,4.3,0V37.44h13.7a2,2,0,0,1,2,2,2,2,0,0,1-2,2H257a2.17,2.17,0,0,1-2.12-2.17Z" fill="#fff"/><path d="M282.9,4.49a2.49,2.49,0,0,1,5,0v.7a2.49,2.49,0,0,1-5,0Zm.38,10.65A2.12,2.12,0,0,1,285.35,13a2.09,2.09,0,0,1,2.12,2.12V39.56a2,2,0,0,1-2.07,2.12,2.09,2.09,0,0,1-2.12-2.12Z" fill="#fff"/><path d="M298.78,46.9a1.94,1.94,0,0,1-1.09-1.74,2,2,0,0,1,1.91-1.85,1.62,1.62,0,0,1,.92.28,17.82,17.82,0,0,0,10,3c6.2,0,10.23-3.42,10.23-10V33.31c-2.45,3.26-5.88,5.93-11,5.93a13,13,0,0,1-13.22-13.16V26a13.31,13.31,0,0,1,24.2-7.62V15.14A2.08,2.08,0,0,1,322.71,13a2.12,2.12,0,0,1,2.12,2.12V36.52c0,4.35-1.3,7.66-3.59,9.95-2.5,2.5-6.25,3.75-10.71,3.75A22,22,0,0,1,298.78,46.9Zm22-20.88v-.11c0-5.76-5-9.52-10.34-9.52s-9.73,3.7-9.73,9.47V26a9.52,9.52,0,0,0,9.73,9.57C315.8,35.54,320.81,31.68,320.81,26Z" fill="#fff"/><path d="M334.46,3.56a2.09,2.09,0,1,1,4.18,0V18.19a10.64,10.64,0,0,1,9.63-5.49C355.07,12.7,359,17.27,359,24V39.56a2.1,2.1,0,1,1-4.19,0V25c0-5.22-2.83-8.49-7.78-8.49s-8.43,3.54-8.43,8.81V39.56a2,2,0,0,1-2.06,2.12,2.08,2.08,0,0,1-2.12-2.12Z" fill="#fff"/><path d="M368.94,34V17h-2.29a1.91,1.91,0,0,1-1.85-1.85,1.86,1.86,0,0,1,1.85-1.84h2.29V6.66A2.08,2.08,0,0,1,371,4.54a2.16,2.16,0,0,1,2.12,2.12V13.3h7.29a1.91,1.91,0,0,1,1.9,1.84,1.88,1.88,0,0,1-1.9,1.85h-7.29V33.42c0,3.42,1.91,4.67,4.73,4.67a12,12,0,0,0,2.56-.38,1.82,1.82,0,0,1,1.8,1.8,1.75,1.75,0,0,1-1.2,1.63,10.57,10.57,0,0,1-4.13.76C372.36,41.9,368.94,39.67,368.94,34Z" fill="#fff"/><path d="M391.29,3.56a2.07,2.07,0,0,1,2.06-2.12,2.09,2.09,0,0,1,2.13,2.12V19c2.28-3.37,5.6-6.25,10.76-6.25,6.75,0,13.44,5.33,13.44,14.57v.11C419.68,36.57,413,42,406.24,42a12.67,12.67,0,0,1-10.76-6v3.53a2.08,2.08,0,0,1-2.07,2.12,2.12,2.12,0,0,1-2.12-2.12Zm24.09,23.87v-.1c0-6.64-4.57-10.88-9.9-10.88a10.48,10.48,0,0,0-10.17,10.82v.11c0,6.53,4.95,10.88,10.17,10.88C410.92,38.26,415.38,34.23,415.38,27.43Z" fill="#fff"/><path d="M439.14,42.06c-7.72,0-14-5.92-14-14.63v-.1c0-8.11,5.71-14.63,13.49-14.63,8.32,0,13,6.79,13,14.25a1.94,1.94,0,0,1-2,1.95H429.36c.59,6.09,4.89,9.52,9.89,9.52a11.53,11.53,0,0,0,8.11-3.26,1.77,1.77,0,0,1,1.19-.49,1.78,1.78,0,0,1,1.2,3.15A14.29,14.29,0,0,1,439.14,42.06Zm8.33-16.26c-.44-5.11-3.38-9.57-9-9.57-4.89,0-8.59,4.08-9.13,9.57Z" fill="#fff"/><path d="M458.61,15.14A2.12,2.12,0,0,1,460.68,13a2.09,2.09,0,0,1,2.12,2.12v3.05a10.64,10.64,0,0,1,9.63-5.49c6.8,0,10.77,4.57,10.77,11.25V39.56a2.1,2.1,0,1,1-4.19,0V25c0-5.22-2.83-8.49-7.78-8.49S462.8,20,462.8,25.31V39.56a2,2,0,0,1-2.06,2.12,2.09,2.09,0,0,1-2.13-2.12Z" fill="#fff"/><path d="M518.22,39.56a2.1,2.1,0,1,1-4.19,0v-3.8c-2.28,3.37-5.6,6.25-10.77,6.25-6.74,0-13.43-5.33-13.43-14.58v-.1c0-9.19,6.69-14.63,13.43-14.63a12.67,12.67,0,0,1,10.77,6V3.56a2,2,0,0,1,2.07-2.12,2.09,2.09,0,0,1,2.12,2.12ZM494.13,27.27v.11c0,6.63,4.62,10.88,9.89,10.88s10.17-4.41,10.17-10.88v-.11A10.44,10.44,0,0,0,504,16.45C498.59,16.45,494.13,20.47,494.13,27.27Z" fill="#fff"/><g id="icon"><path d="M105,152.18l4.06,2a62.28,62.28,0,0,1,34.44,55.7h0L105,190.67Z" fill="#fff" opacity="0.5"/><path d="M66.53,209.91,105,190.67V152.18l-4.07,2a62.29,62.29,0,0,0-34.44,55.7Z" fill="#fff" opacity="0.8"/><path d="M143.54,209.91h0L105,190.67,66.53,209.91h0A86.1,86.1,0,0,0,143.54,209.91Z" fill="#fff"/><path d="M107,75.82l-4.06-2a62.28,62.28,0,0,1-34.44-55.7h0L107,37.33Z" fill="#fff" opacity="0.5"/><path d="M145.47,18.09,107,37.33V75.82l4.07-2a62.29,62.29,0,0,0,34.44-55.7Z" fill="#fff" opacity="0.8"/><path d="M68.46,18.09h0L107,37.33l38.51-19.24h0A86.1,86.1,0,0,0,68.46,18.09Z" fill="#fff"/><path d="M71.24,95.33l-3.8,2.5A62.33,62.33,0,0,1,2,99.79H2L37.89,76.08Z" fill="#fff" opacity="0.5"/><path d="M40.47,33.13,37.89,76.08,71.24,95.33l.27-4.54a62.28,62.28,0,0,0-31-57.66Z" fill="#fff" opacity="0.8"/><path d="M2,99.79H2L37.89,76.08l2.58-42.95h0A86.05,86.05,0,0,0,2,99.79Z" fill="#fff"/><path d="M140.76,132.67l3.8-2.5a62.33,62.33,0,0,1,65.48-2h0l-35.93,23.71Z" fill="#fff" opacity="0.5"/><path d="M171.53,194.87l2.58-43-33.35-19.25-.27,4.54a62.28,62.28,0,0,0,31,57.66Z" fill="#fff" opacity="0.8"/><path d="M210,128.21h0l-35.93,23.71-2.58,43h0A86.05,86.05,0,0,0,210,128.21Z" fill="#fff"/><path d="M70.27,131l.27,4.53a62.27,62.27,0,0,1-31,57.67h0l-2.58-43Z" fill="#fff" opacity="0.5"/><path d="M1,126.54l35.93,23.71L70.27,131l-3.79-2.5a62.33,62.33,0,0,0-65.48-2Z" fill="#fff" opacity="0.8"/><path d="M39.51,193.21h0l-2.58-43L1,126.54H1A86.06,86.06,0,0,0,39.51,193.21Z" fill="#fff"/><path d="M141.73,97l-.27-4.53a62.27,62.27,0,0,1,31-57.67h0l2.58,43Z" fill="#fff" opacity="0.5"/><path d="M211,101.46,175.07,77.75,141.73,97l3.79,2.5a62.33,62.33,0,0,0,65.48,2Z" fill="#fff" opacity="0.8"/><path d="M172.49,34.79h0l2.58,43L211,101.46h0A86.06,86.06,0,0,0,172.49,34.79Z" fill="#fff"/></g></svg>